<svg width="177" height="60" viewBox="0 0 177 60" fill="none" xmlns="http://www.w3.org/2000/svg">
<path d="M64.056 18.344V31.728C64.056 33.8 63.468 35.396 62.292 36.516C61.1347 37.636 59.5667 38.196 57.588 38.196C55.516 38.196 53.8547 37.608 52.604 36.432C51.3533 35.256 50.728 33.5853 50.728 31.42H55.488C55.488 32.2413 55.656 32.8667 55.992 33.296C56.328 33.7067 56.8133 33.912 57.448 33.912C58.0267 33.912 58.4747 33.7253 58.792 33.352C59.1093 32.9787 59.268 32.4373 59.268 31.728V18.344H64.056ZM72.7115 22.18V26.156H79.1235V29.852H72.7115V34.164H79.9635V38H67.9235V18.344H79.9635V22.18H72.7115ZM95.8679 18.344V22.18H87.8599V26.324H93.8519V30.048H87.8599V38H83.0719V18.344H95.8679Z" fill="#222222"/>
<path d="M105.748 18.344C107.82 18.344 109.631 18.7547 111.18 19.576C112.73 20.3973 113.924 21.5547 114.764 23.048C115.623 24.5227 116.052 26.2307 116.052 28.172C116.052 30.0947 115.623 31.8027 114.764 33.296C113.924 34.7893 112.72 35.9467 111.152 36.768C109.603 37.5893 107.802 38 105.748 38H98.3844V18.344H105.748ZM105.44 33.856C107.251 33.856 108.66 33.3613 109.668 32.372C110.676 31.3827 111.18 29.9827 111.18 28.172C111.18 26.3613 110.676 24.952 109.668 23.944C108.66 22.936 107.251 22.432 105.44 22.432H103.172V33.856H105.44ZM123.516 22.18V26.156H129.928V29.852H123.516V34.164H130.768V38H118.728V18.344H130.768V22.18H123.516ZM156.137 18.344V38H151.349V26.212L146.953 38H143.089L138.665 26.184V38H133.877V18.344H139.533L145.049 31.952L150.509 18.344H156.137ZM176.436 18.344L169.632 31.504V38H164.844V31.504L158.04 18.344H163.472L167.28 26.576L171.06 18.344H176.436Z" fill="#111111"/>
<path d="M64.056 18.344V31.728C64.056 33.8 63.468 35.396 62.292 36.516C61.1347 37.636 59.5667 38.196 57.588 38.196C55.516 38.196 53.8547 37.608 52.604 36.432C51.3533 35.256 50.728 33.5853 50.728 31.42H55.488C55.488 32.2413 55.656 32.8667 55.992 33.296C56.328 33.7067 56.8133 33.912 57.448 33.912C58.0267 33.912 58.4747 33.7253 58.792 33.352C59.1093 32.9787 59.268 32.4373 59.268 31.728V18.344H64.056ZM72.7115 22.18V26.156H79.1235V29.852H72.7115V34.164H79.9635V38H67.9235V18.344H79.9635V22.18H72.7115ZM95.8679 18.344V22.18H87.8599V26.324H93.8519V30.048H87.8599V38H83.0719V18.344H95.8679Z" fill="url(#paint0_linear_1433_713)"/>
<path d="M2.03392 35.8357C0.264613 30.6065 3.34852 28.8269 5.30705 28.421C6.13337 28.1539 6.30901 27.1238 6.29354 26.6422C6.09328 26.0221 6.19215 23.9895 6.26662 23.0507C6.73107 20.0608 7.90981 18.0303 8.44113 17.3888C10.1298 15.0559 13.5634 15.7094 14.2438 15.8673C14.7881 15.9936 14.5889 16.2342 14.4212 16.3387C13.3404 16.5467 12.3413 18.9154 11.9769 20.0737C11.1197 22.284 11.3008 24.8405 11.4985 25.8424C12.2141 29.6798 15.3722 31.8086 16.8618 32.3934C19.8925 33.6704 22.403 33.4404 23.2794 33.1658C24.3218 29.6628 26.675 30.4813 27.7213 31.3284C28.6836 32.1254 28.4799 33.5123 28.0422 34.2711C27.6045 35.03 26.1684 36.2742 23.9551 37.0512C21.7419 37.8283 19.6331 37.9603 19.1584 37.9457C17.2319 37.8428 14.4758 36.9068 13.3386 36.4516C12.2169 35.8471 11.6287 36.1982 11.4748 36.4493C11.4748 36.4493 9.29439 38.429 9.13726 38.4882C5.42435 40.1505 2.98493 37.2993 2.03392 35.8357Z" fill="#0085FF"/>
<path d="M12.1498 34.885C11.4521 37.8912 8.44955 39.7626 5.44335 39.0649C2.43715 38.3673 0.565735 35.3647 1.26343 32.3585C1.96112 29.3523 4.96372 27.4808 7.96992 28.1785C10.9761 28.8762 12.8475 31.8788 12.1498 34.885Z" fill="#0085FF"/>
<mask id="mask0_1433_713" style="mask-type:alpha" maskUnits="userSpaceOnUse" x="9" y="15" width="21" height="22">
<path d="M9.96313 21.4701C10.7464 18.0953 13.5361 16.2761 14.7058 15.974L24.2079 26.2102L29.3111 31.4101L28.2951 34.0425L27.4982 35.0048C25.2841 37.1297 21.0714 36.4292 19.0545 36.0567C16.9355 35.7944 14.2365 34.3649 13.1519 33.683C11.2604 32.4409 10.0227 29.6583 9.64033 28.4223C8.98121 26.3189 9.5809 22.9111 9.96313 21.4701Z" fill="#D9D9D9"/>
</mask>
<g mask="url(#mask0_1433_713)">
<path d="M2.0637 35.8416C0.294398 30.6124 3.3783 28.8328 5.33684 28.4269C6.16315 28.1597 6.3388 27.1297 6.32333 26.6481C6.12307 26.0279 6.22193 23.9953 6.2964 23.0566C6.76086 20.0667 7.9396 18.0362 8.47091 17.3946C10.1596 15.0617 13.5932 15.7152 14.2736 15.8731C14.8179 15.9995 14.6187 16.24 14.451 16.3445C13.3702 16.5526 12.3711 18.9212 12.0067 20.0795C11.1495 22.2899 11.3306 24.8464 11.5283 25.8483C12.2439 29.6857 15.402 31.8145 16.8916 32.3992C19.9223 33.6762 22.4328 33.4462 23.3092 33.1716C24.3516 29.6687 26.7048 30.4872 27.7511 31.3343C28.7134 32.1313 28.5097 33.5181 28.072 34.277C27.6343 35.0358 26.1982 36.2801 23.9849 37.0571C21.7716 37.8341 19.6629 37.9661 19.1882 37.9516C17.2617 37.8487 14.5056 36.9126 13.3684 36.4575C12.2466 35.853 11.6584 36.204 11.5046 36.4552C11.5046 36.4552 9.32418 38.4349 9.16704 38.494C5.45414 40.1563 3.01472 37.3052 2.0637 35.8416Z" fill="#0066C3"/>
<path d="M12.1796 34.8909C11.4819 37.8971 8.47933 39.7685 5.47313 39.0708C2.46693 38.3731 0.59552 35.3705 1.29321 32.3643C1.99091 29.3581 4.9935 27.4867 7.9997 28.1844C11.0059 28.8821 12.8773 31.8847 12.1796 34.8909Z" fill="#0066C3"/>
</g>
<path d="M30.5984 6.3029C35.8802 7.90816 35.5321 11.4516 34.7221 13.2804C34.4583 14.1078 35.1936 14.8502 35.5943 15.118C36.2151 15.3161 37.8102 16.5797 38.5302 17.1867C40.691 19.3048 41.6559 21.4452 41.8683 22.2507C42.7822 24.9817 40.2522 27.3933 39.7277 27.8546C39.3081 28.2236 39.2285 27.9216 39.2411 27.7244C39.7011 26.7245 38.3567 24.5333 37.627 23.5628C36.3287 21.5791 34.1445 20.2383 33.2147 19.8158C29.678 18.1639 26.1087 19.4926 24.7661 20.3635C21.9636 22.0845 20.6892 24.2597 20.4024 25.1321C22.6439 28.0188 20.6086 29.4558 19.3107 29.8134C18.1025 30.132 17.0934 29.1591 16.7312 28.3614C16.3689 27.5638 16.1932 25.6718 16.8497 23.4199C17.5062 21.1679 18.6264 19.3764 18.9145 18.9989C20.1196 17.4923 22.4851 15.7962 23.5171 15.1364C24.6616 14.5762 24.7185 13.8936 24.6039 13.6223C24.6039 13.6223 24.2634 10.6969 24.3068 10.5348C25.1164 6.5481 28.8547 6.22423 30.5984 6.3029Z" fill="#FDD92C"/>
<path d="M25.4829 15.0817C23.4447 12.7645 23.6708 9.23369 25.988 7.19543C28.3052 5.15716 31.836 5.38329 33.8743 7.7005C35.9126 10.0177 35.6864 13.5485 33.3692 15.5868C31.052 17.6251 27.5212 17.3989 25.4829 15.0817Z" fill="#FDD92C"/>
<mask id="mask1_1433_713" style="mask-type:alpha" maskUnits="userSpaceOnUse" x="16" y="16" width="24" height="16">
<path d="M37.6631 21.1118C39.9513 23.7131 39.8066 27.0405 39.3714 28.1674L25.517 29.9353L18.3183 31.058L16.7692 28.6995L16.4507 27.4914C16.0117 24.4542 19.0335 21.4364 20.5104 20.0133C21.9571 18.443 24.6905 17.0805 25.8764 16.5956C27.9875 15.7806 30.9705 16.3939 32.1981 16.8025C34.292 17.4909 36.7139 19.9622 37.6631 21.1118Z" fill="#D9D9D9"/>
</mask>
<g mask="url(#mask1_1433_713)">
<path d="M30.5754 6.32267C35.8573 7.92793 35.5092 11.4714 34.6992 13.3002C34.4354 14.1276 35.1707 14.87 35.5713 15.1378C36.1921 15.3359 37.7873 16.5995 38.5073 17.2065C40.668 19.3245 41.633 21.465 41.8453 22.2704C42.7592 25.0015 40.2292 27.413 39.7047 27.8744C39.2852 28.2434 39.2055 27.9414 39.2182 27.7442C39.6781 26.7443 38.3337 24.5531 37.604 23.5825C36.3057 21.5989 34.1216 20.258 33.1918 19.8356C29.655 18.1837 26.0857 19.5124 24.7432 20.3833C21.9406 22.1043 20.6663 24.2795 20.3794 25.1519C22.6209 28.0386 20.5856 29.4755 19.2878 29.8332C18.0796 30.1517 17.0705 29.1789 16.7082 28.3812C16.346 27.5836 16.1702 25.6916 16.8267 23.4396C17.4833 21.1877 18.6034 19.3961 18.8916 19.0187C20.0967 17.5121 22.4621 15.8159 23.4942 15.1562C24.6387 14.596 24.6956 13.9133 24.581 13.642C24.581 13.642 24.2404 10.7167 24.2838 10.5545C25.0934 6.56787 28.8318 6.244 30.5754 6.32267Z" fill="#D4B007"/>
<path d="M25.46 15.1015C23.4217 12.7843 23.6478 9.25347 25.965 7.2152C28.2823 5.17693 31.8131 5.40306 33.8513 7.72027C35.8896 10.0375 35.6635 13.5683 33.3463 15.6066C31.0291 17.6448 27.4982 17.4187 25.46 15.1015Z" fill="#D4B007"/>
</g>
<path d="M44.2862 44.1773C40.8671 48.5115 37.6939 46.8965 36.2859 45.4759C35.6114 44.9288 34.6522 45.3432 34.2569 45.6187C33.8462 46.1247 32.0883 47.15 31.2608 47.5994C28.5011 48.8401 26.1562 48.959 25.3288 48.8633C22.4524 48.7196 21.1283 45.4849 20.8897 44.8284C20.6988 44.3032 21.0091 44.3391 21.1881 44.4227C21.9518 45.2153 24.4822 44.7615 25.6519 44.4355C27.9722 43.949 30.0165 42.4034 30.7487 41.6914C33.5755 38.9994 33.6383 35.1913 33.3163 33.6237C32.7345 30.3868 31.173 28.4077 30.465 27.8227C26.9601 28.8586 26.3633 26.4397 26.503 25.1007C26.6465 23.8595 27.9201 23.2742 28.7949 23.2274C29.6697 23.1806 31.4957 23.7061 33.3538 25.1379C35.2119 26.5697 36.4722 28.2655 36.7188 28.6713C37.6828 30.3424 38.4008 33.1632 38.6392 34.3648C38.744 35.6347 39.359 35.9363 39.6534 35.9284C39.6534 35.9284 42.5018 36.6769 42.637 36.7764C46.0548 38.9827 44.9946 42.5821 44.2862 44.1773Z" fill="#FF0387"/>
<path d="M37.974 36.2154C40.8746 35.1613 44.0804 36.6581 45.1345 39.5586C46.1886 42.4591 44.6917 45.6649 41.7912 46.719C38.8907 47.7731 35.6849 46.2763 34.6308 43.3758C33.5767 40.4753 35.0735 37.2695 37.974 36.2154Z" fill="#FF0387"/>
<mask id="mask2_1433_713" style="mask-type:alpha" maskUnits="userSpaceOnUse" x="20" y="23" width="17" height="23">
<path d="M27.9207 45.3616C24.6646 46.5449 21.6186 45.198 20.7276 44.3823L24.1282 30.8358L25.705 23.7228L28.4656 23.1393L29.7069 23.2828C32.6953 23.9804 34.4049 27.8938 35.1922 29.7877C36.1275 31.707 36.4007 34.7489 36.4203 36.03C36.4103 38.2929 34.7524 40.8475 33.9247 41.8419C32.5208 43.5412 29.3371 44.8964 27.9207 45.3616Z" fill="#D9D9D9"/>
</mask>
<g mask="url(#mask2_1433_713)">
<path d="M44.2754 44.148C40.8564 48.4822 37.6832 46.8672 36.2751 45.4466C35.6007 44.8995 34.6414 45.3139 34.2461 45.5894C33.8354 46.0954 32.0776 47.1207 31.25 47.5701C28.4904 48.8108 26.1455 48.9297 25.318 48.834C22.4417 48.6903 21.1175 45.4556 20.8789 44.7991C20.6881 44.2739 20.9984 44.3098 21.1774 44.3934C21.9411 45.186 24.4714 44.7322 25.6411 44.4062C27.9614 43.9197 30.0058 42.3741 30.738 41.6621C33.5647 38.9701 33.6275 35.162 33.3056 33.5945C32.7237 30.3575 31.1622 28.3784 30.4542 27.7934C26.9494 28.8293 26.3526 26.4104 26.4923 25.0715C26.6358 23.8302 27.9094 23.2449 28.7842 23.1981C29.659 23.1513 31.485 23.6768 33.343 25.1086C35.2011 26.5404 36.4615 28.2362 36.7081 28.642C37.6721 30.3131 38.39 33.1339 38.6285 34.3355C38.7333 35.6054 39.3483 35.9071 39.6427 35.8992C39.6427 35.8992 42.4911 36.6476 42.6263 36.7471C46.0441 38.9534 44.9839 42.5528 44.2754 44.148Z" fill="#CD2472"/>
<path d="M37.9633 36.1861C40.8638 35.132 44.0696 36.6288 45.1237 39.5293C46.1778 42.4298 44.681 45.6356 41.7805 46.6897C38.88 47.7438 35.6742 46.247 34.6201 43.3465C33.566 40.446 35.0628 37.2402 37.9633 36.1861Z" fill="#CD2472"/>
</g>
<defs>
<linearGradient id="paint0_linear_1433_713" x1="94" y1="36.5" x2="61.781" y2="48.1937" gradientUnits="userSpaceOnUse">
<stop stop-color="#0085FF"/>
<stop offset="0.430208" stop-color="#FF0387"/>
<stop offset="1" stop-color="#FDD92C"/>
</linearGradient>
</defs>
</svg>
